<?xml version="1.0" encoding="utf-8"?><svg viewBox="0 0 24 24" xmlns="http://www.w3.org/2000/svg" xmlns:xlink="http://www.w3.org/1999/xlink"><style>:root>svg{display:none}:root>svg:target{display:block}</style><svg fill="none" viewBox="0 0 16 19" id="icon-address" xmlns="http://www.w3.org/2000/svg"><path fill-rule="evenodd" clip-rule="evenodd" d="M8.974 18.541c2.116-1.443 6.943-5.236 6.943-9.791a7.917 7.917 0 1 0-15.834 0c0 4.555 4.827 8.348 6.943 9.791a1.718 1.718 0 0 0 1.948 0ZM8 11.25a2.5 2.5 0 1 0 0-5 2.5 2.5 0 0 0 0 5Z" fill="#898989"/></svg><svg viewBox="0 0 16 12" id="icon-arrow" xmlns="http://www.w3.org/2000/svg"><path d="m15.365 6.56-4.98 5a.79.79 0 0 1-.56.24c-.2 0-.4-.08-.56-.24a.797.797 0 0 1 0-1.14l3.62-3.64H1.205c-.44 0-.8-.36-.8-.8 0-.44.36-.8.8-.8h11.68l-3.62-3.64a.797.797 0 0 1 0-1.14c.32-.32.82-.32 1.14 0l4.98 5c.3.34.3.86-.02 1.16Z"/></svg><svg fill="none" viewBox="0 0 24 24" id="icon-basket" xmlns="http://www.w3.org/2000/svg"><path d="M1 2.5h1.654c.479 0 .718 0 .912.087a1 1 0 0 1 .423.355c.119.177.16.413.242.884L4.609 6m0 0 .883 5.077c.179 1.03.269 1.546.534 1.917a2 2 0 0 0 .937.714c.428.157.949.107 1.99.006l9.661-.935c1.016-.098 1.524-.147 1.908-.376a2 2 0 0 0 .788-.867c.19-.405.19-.915.19-1.935v0c0-1.085 0-1.628-.208-2.047a2 2 0 0 0-.852-.877c-.413-.22-.955-.237-2.04-.269L4.61 6Z" stroke="#262F56" stroke-width="1.8" stroke-linecap="round" stroke-linejoin="round"/><circle cx="8.5" cy="19" r="2" stroke="#262F56" stroke-width="1.8"/><circle cx="18" cy="19" r="2" stroke="#262F56" stroke-width="1.8"/></svg><svg viewBox="0 0 24 21" id="icon-favorite" xmlns="http://www.w3.org/2000/svg"><path d="M12 19.054C-8 8 6-4 12 3.588 18-4 32 8 12 19.054Z"/></svg><svg fill="none" viewBox="0 0 16 16" id="icon-phone" xmlns="http://www.w3.org/2000/svg"><path d="m11.43 11.067-.515.773c-.103.154-.239.286-.418.334-.588.155-2.147.225-4.521-2.15C3.6 7.65 3.67 6.09 3.826 5.503c.048-.18.18-.315.334-.418l.773-.516a1.253 1.253 0 0 0 .348-1.737L3.82.642A1.253 1.253 0 0 0 2.283.184l-.659.282c-.5.215-.908.6-1.152 1.086-.203.407-.36.836-.382 1.29-.068 1.432.246 4.96 4.176 8.89 3.93 3.93 7.458 4.243 8.89 4.176.454-.021.883-.179 1.29-.382a2.302 2.302 0 0 0 1.086-1.152l.282-.66c.238-.554.046-1.2-.456-1.535l-2.191-1.46a1.253 1.253 0 0 0-1.737.347Z" fill="#898989"/></svg><svg fill="none" viewBox="0 0 16 16" id="icon-search" xmlns="http://www.w3.org/2000/svg"><path d="M14.667 14.667 10.58 10.58m0 0a5.417 5.417 0 1 0-7.66-7.66 5.417 5.417 0 0 0 7.66 7.66Z" stroke="#333" stroke-width="1.8" stroke-linecap="round" stroke-linejoin="round"/></svg><svg viewBox="0 0 18 20" id="icon-share" xmlns="http://www.w3.org/2000/svg"><path d="M15 14c-.788 0-1.5.31-2.034.807L5.91 10.7c.05-.23.09-.46.09-.7 0-.24-.04-.47-.09-.7l7.05-4.11c.54.5 1.25.81 2.04.81 1.66 0 3-1.34 3-3s-1.34-3-3-3-3 1.34-3 3c0 .24.04.47.09.7L5.04 7.81C4.5 7.31 3.79 7 3 7c-1.66 0-3 1.34-3 3s1.34 3 3 3c.79 0 1.5-.31 2.04-.81l7.048 4.118A2.984 2.984 0 0 0 12 17a3 3 0 1 0 3-3Z"/></svg><svg viewBox="0 0 24 24" id="icon-submit" xmlns="http://www.w3.org/2000/svg"><path d="M20.782 3.217a.75.75 0 0 0-.787-.172l-16.5 6a.75.75 0 0 0 0 1.402l6.442 2.573 4.756-4.77 1.057 1.057-4.777 4.778 2.58 6.442a.75.75 0 0 0 .697.473.75.75 0 0 0 .69-.495l6-16.5a.75.75 0 0 0-.158-.788Z"/></svg></svg>