<svg width="48" height="48" viewBox="0 0 48 48" fill="none" xmlns="http://www.w3.org/2000/svg">
<circle cx="24" cy="24" r="24" fill="#2EC1AC"/>
<path d="M18.824 18.512V30H17.96C17.8267 30 17.7147 29.976 17.624 29.928C17.5387 29.88 17.4507 29.8027 17.36 29.696L10.872 21.304C10.8827 21.448 10.8907 21.5893 10.896 21.728C10.9067 21.8667 10.912 21.9973 10.912 22.12V30H9.416V18.512H10.296C10.4453 18.512 10.5573 18.5307 10.632 18.568C10.7067 18.6 10.7893 18.6773 10.88 18.8L17.384 27.2C17.368 27.0453 17.3547 26.896 17.344 26.752C17.3387 26.6027 17.336 26.464 17.336 26.336V18.512H18.824ZM26.48 25.032C26.48 24.7227 26.4347 24.4373 26.344 24.176C26.2587 23.9147 26.1307 23.688 25.96 23.496C25.7893 23.304 25.5813 23.1547 25.336 23.048C25.0907 22.9413 24.808 22.888 24.488 22.888C23.832 22.888 23.3147 23.0773 22.936 23.456C22.5627 23.8347 22.3253 24.36 22.224 25.032H26.48ZM27.768 28.84C27.576 29.064 27.3547 29.2587 27.104 29.424C26.8533 29.584 26.5867 29.7147 26.304 29.816C26.0213 29.9173 25.728 29.992 25.424 30.04C25.1253 30.088 24.8293 30.112 24.536 30.112C23.976 30.112 23.456 30.0187 22.976 29.832C22.5013 29.64 22.088 29.3627 21.736 29C21.3893 28.632 21.1173 28.1787 20.92 27.64C20.728 27.096 20.632 26.472 20.632 25.768C20.632 25.2027 20.72 24.6773 20.896 24.192C21.072 23.7013 21.3227 23.2747 21.648 22.912C21.9787 22.5493 22.3813 22.264 22.856 22.056C23.3307 21.848 23.864 21.744 24.456 21.744C24.952 21.744 25.408 21.8267 25.824 21.992C26.2453 22.152 26.608 22.3867 26.912 22.696C27.216 23.0053 27.4533 23.3867 27.624 23.84C27.8 24.2933 27.888 24.8107 27.888 25.392C27.888 25.632 27.8613 25.7947 27.808 25.88C27.7547 25.96 27.656 26 27.512 26H22.184C22.2 26.4853 22.2693 26.9093 22.392 27.272C22.5147 27.6293 22.6827 27.928 22.896 28.168C23.1147 28.408 23.3733 28.5867 23.672 28.704C23.9707 28.8213 24.304 28.88 24.672 28.88C25.0187 28.88 25.3173 28.84 25.568 28.76C25.824 28.68 26.0427 28.5947 26.224 28.504C26.4107 28.408 26.5653 28.32 26.688 28.24C26.816 28.16 26.928 28.12 27.024 28.12C27.152 28.12 27.2507 28.168 27.32 28.264L27.768 28.84ZM40.775 21.872L38.159 30H36.911C36.7617 30 36.6603 29.9013 36.607 29.704L34.895 24.408C34.8523 24.2747 34.815 24.144 34.783 24.016C34.751 23.8827 34.7217 23.7493 34.695 23.616C34.647 23.8933 34.5803 24.1627 34.495 24.424L32.759 29.704C32.7057 29.9013 32.591 30 32.415 30H31.231L28.607 21.872H29.839C29.9617 21.872 30.063 21.9013 30.143 21.96C30.2283 22.0187 30.2843 22.0933 30.311 22.184L31.775 27.176C31.823 27.3787 31.8657 27.576 31.903 27.768C31.9403 27.96 31.975 28.152 32.007 28.344C32.055 28.152 32.1057 27.96 32.159 27.768C32.2177 27.576 32.2763 27.3787 32.335 27.176L33.959 22.152C33.9857 22.0613 34.0363 21.9893 34.111 21.936C34.1857 21.8773 34.2763 21.848 34.383 21.848H35.063C35.1803 21.848 35.2763 21.8773 35.351 21.936C35.431 21.9893 35.4843 22.0613 35.511 22.152L37.095 27.176C37.1537 27.3787 37.2097 27.5787 37.263 27.776C37.3163 27.968 37.3643 28.1627 37.407 28.36C37.439 28.168 37.4763 27.976 37.519 27.784C37.5617 27.5867 37.6097 27.384 37.663 27.176L39.151 22.184C39.1777 22.0933 39.231 22.0187 39.311 21.96C39.3963 21.9013 39.4923 21.872 39.599 21.872H40.775Z" fill="white"/>
</svg>
