<?xml version="1.0" encoding="utf-8"?><svg viewBox="0 0 24 24" xmlns="http://www.w3.org/2000/svg" xmlns:xlink="http://www.w3.org/1999/xlink"><style>:root>svg{display:none}:root>svg:target{display:block}</style><svg fill="none" viewBox="0 0 16 12" id="icon-arrow" xmlns="http://www.w3.org/2000/svg"><path d="m15.365 6.56-4.98 5a.79.79 0 0 1-.56.24c-.2 0-.4-.08-.56-.24a.797.797 0 0 1 0-1.14l3.62-3.64H1.205c-.44 0-.8-.36-.8-.8 0-.44.36-.8.8-.8h11.68l-3.62-3.64a.797.797 0 0 1 0-1.14c.32-.32.82-.32 1.14 0l4.98 5c.3.34.3.86-.02 1.16Z" fill="#000"/></svg><svg fill="none" viewBox="0 0 24 24" id="icon-basket" xmlns="http://www.w3.org/2000/svg"><path d="M1 2.5h1.654c.479 0 .718 0 .912.087a1 1 0 0 1 .423.355c.119.177.16.413.242.884L4.609 6m0 0 .883 5.077c.179 1.03.269 1.546.534 1.917a2 2 0 0 0 .937.714c.428.157.949.107 1.99.006l9.661-.935c1.016-.098 1.524-.147 1.908-.376a2 2 0 0 0 .788-.867c.19-.405.19-.915.19-1.935v0c0-1.085 0-1.628-.208-2.047a2 2 0 0 0-.852-.877c-.413-.22-.955-.237-2.04-.269L4.61 6Z" stroke="#262F56" stroke-width="1.8" stroke-linecap="round" stroke-linejoin="round"/><circle cx="8.5" cy="19" r="2" stroke="#262F56" stroke-width="1.8"/><circle cx="18" cy="19" r="2" stroke="#262F56" stroke-width="1.8"/></svg><svg viewBox="0 0 24 21" id="icon-favorite" xmlns="http://www.w3.org/2000/svg"><path d="M12 19.054C-8 8 6-4 12 3.588 18-4 32 8 12 19.054Z" stroke="#262F56" stroke-width="1.8"/></svg><svg fill="none" viewBox="0 0 16 16" id="icon-search" xmlns="http://www.w3.org/2000/svg"><path d="M14.667 14.667 10.58 10.58m0 0a5.417 5.417 0 1 0-7.66-7.66 5.417 5.417 0 0 0 7.66 7.66Z" stroke="#333" stroke-width="1.8" stroke-linecap="round" stroke-linejoin="round"/></svg></svg>