<svg width="48" height="48" viewBox="0 0 48 48" fill="none" xmlns="http://www.w3.org/2000/svg">
<circle cx="24" cy="24" r="24" fill="#E97171"/>
<path d="M5.976 24.528H9.976V25.856H5.976V24.528ZM13.9371 22.8C14.5238 22.6773 15.0545 22.616 15.5291 22.616C16.1265 22.616 16.6545 22.7067 17.1131 22.888C17.5718 23.064 17.9558 23.3093 18.2651 23.624C18.5798 23.9333 18.8145 24.3013 18.9691 24.728C19.1291 25.1493 19.2091 25.608 19.2091 26.104C19.2091 26.712 19.1025 27.264 18.8891 27.76C18.6758 28.256 18.3825 28.68 18.0091 29.032C17.6358 29.384 17.1931 29.656 16.6811 29.848C16.1745 30.0347 15.6278 30.128 15.0411 30.128C14.6945 30.128 14.3638 30.0933 14.0491 30.024C13.7398 29.9547 13.4491 29.864 13.1771 29.752C12.9051 29.6347 12.6518 29.5013 12.4171 29.352C12.1878 29.2027 11.9825 29.0453 11.8011 28.88L12.2811 28.208C12.3825 28.0587 12.5185 27.984 12.6891 27.984C12.8011 27.984 12.9238 28.0267 13.0571 28.112C13.1958 28.192 13.3585 28.2827 13.5451 28.384C13.7318 28.4853 13.9531 28.5787 14.2091 28.664C14.4651 28.744 14.7691 28.784 15.1211 28.784C15.5105 28.784 15.8598 28.7227 16.1691 28.6C16.4838 28.472 16.7478 28.2933 16.9611 28.064C17.1798 27.8347 17.3451 27.56 17.4571 27.24C17.5745 26.92 17.6331 26.5653 17.6331 26.176C17.6331 25.8293 17.5825 25.5173 17.4811 25.24C17.3798 24.9627 17.2278 24.7253 17.0251 24.528C16.8225 24.3307 16.5691 24.1813 16.2651 24.08C15.9611 23.9733 15.6065 23.92 15.2011 23.92C14.6358 23.92 14.0331 24.0213 13.3931 24.224L12.4091 23.936L13.3451 18.512H18.8491V19.192C18.8491 19.416 18.7771 19.6 18.6331 19.744C18.4945 19.8827 18.2598 19.952 17.9291 19.952H14.4331L13.9371 22.8ZM29.0504 24.256C29.0504 25.2587 28.941 26.128 28.7224 26.864C28.509 27.6 28.213 28.2107 27.8344 28.696C27.461 29.176 27.0184 29.5333 26.5064 29.768C25.9997 30.0027 25.453 30.12 24.8664 30.12C24.2797 30.12 23.7304 30.0027 23.2184 29.768C22.7117 29.5333 22.2717 29.176 21.8984 28.696C21.525 28.2107 21.2317 27.6 21.0184 26.864C20.805 26.128 20.6984 25.2587 20.6984 24.256C20.6984 23.2533 20.805 22.384 21.0184 21.648C21.2317 20.9067 21.525 20.296 21.8984 19.816C22.2717 19.3307 22.7117 18.9707 23.2184 18.736C23.7304 18.5013 24.2797 18.384 24.8664 18.384C25.453 18.384 25.9997 18.5013 26.5064 18.736C27.0184 18.9707 27.461 19.3307 27.8344 19.816C28.213 20.296 28.509 20.9067 28.7224 21.648C28.941 22.384 29.0504 23.2533 29.0504 24.256ZM27.4344 24.256C27.4344 23.392 27.3624 22.6693 27.2184 22.088C27.0797 21.5067 26.8904 21.04 26.6504 20.688C26.4157 20.3307 26.1437 20.0773 25.8344 19.928C25.525 19.7787 25.2024 19.704 24.8664 19.704C24.5304 19.704 24.2077 19.7787 23.8984 19.928C23.589 20.0773 23.3144 20.3307 23.0744 20.688C22.8397 21.04 22.653 21.5067 22.5144 22.088C22.3757 22.6693 22.3064 23.392 22.3064 24.256C22.3064 25.12 22.3757 25.8427 22.5144 26.424C22.653 27.0053 22.8397 27.472 23.0744 27.824C23.3144 28.176 23.589 28.4267 23.8984 28.576C24.2077 28.7253 24.5304 28.8 24.8664 28.8C25.2024 28.8 25.525 28.7253 25.8344 28.576C26.1437 28.4267 26.4157 28.176 26.6504 27.824C26.8904 27.472 27.0797 27.0053 27.2184 26.424C27.3624 25.8427 27.4344 25.12 27.4344 24.256ZM35.3396 21.288C35.3396 21.736 35.2676 22.136 35.1236 22.488C34.985 22.84 34.7983 23.1387 34.5636 23.384C34.329 23.624 34.0543 23.8107 33.7396 23.944C33.4303 24.072 33.105 24.136 32.7636 24.136C32.3956 24.136 32.0543 24.072 31.7396 23.944C31.4303 23.8107 31.161 23.624 30.9316 23.384C30.7023 23.1387 30.521 22.84 30.3876 22.488C30.2596 22.136 30.1956 21.736 30.1956 21.288C30.1956 20.8293 30.2596 20.4213 30.3876 20.064C30.521 19.7067 30.7023 19.4053 30.9316 19.16C31.161 18.9093 31.4303 18.72 31.7396 18.592C32.0543 18.4587 32.3956 18.392 32.7636 18.392C33.1316 18.392 33.4703 18.4587 33.7796 18.592C34.0943 18.72 34.3663 18.9093 34.5956 19.16C34.8303 19.4053 35.0116 19.7067 35.1396 20.064C35.273 20.4213 35.3396 20.8293 35.3396 21.288ZM34.1236 21.288C34.1236 20.9467 34.0863 20.6587 34.0116 20.424C33.9423 20.184 33.8463 19.992 33.7236 19.848C33.601 19.6987 33.457 19.592 33.2916 19.528C33.1263 19.4587 32.9503 19.424 32.7636 19.424C32.577 19.424 32.401 19.4587 32.2356 19.528C32.0703 19.592 31.9263 19.6987 31.8036 19.848C31.6863 19.992 31.593 20.184 31.5236 20.424C31.4543 20.6587 31.4196 20.9467 31.4196 21.288C31.4196 21.6187 31.4543 21.9013 31.5236 22.136C31.593 22.3653 31.6863 22.552 31.8036 22.696C31.9263 22.84 32.0703 22.944 32.2356 23.008C32.401 23.072 32.577 23.104 32.7636 23.104C32.9503 23.104 33.1263 23.072 33.2916 23.008C33.457 22.944 33.601 22.84 33.7236 22.696C33.8463 22.552 33.9423 22.3653 34.0116 22.136C34.0863 21.9013 34.1236 21.6187 34.1236 21.288ZM39.3396 18.768C39.3983 18.6987 39.465 18.64 39.5396 18.592C39.6196 18.5387 39.729 18.512 39.8676 18.512H40.9956L32.5636 29.752C32.505 29.8267 32.4356 29.888 32.3556 29.936C32.2756 29.9787 32.1796 30 32.0676 30H30.9076L39.3396 18.768ZM41.7316 27.288C41.7316 27.736 41.6596 28.136 41.5156 28.488C41.377 28.84 41.1903 29.1387 40.9556 29.384C40.721 29.624 40.4463 29.8107 40.1316 29.944C39.8223 30.072 39.497 30.136 39.1556 30.136C38.7876 30.136 38.4463 30.072 38.1316 29.944C37.8223 29.8107 37.553 29.624 37.3236 29.384C37.0943 29.1387 36.913 28.84 36.7796 28.488C36.6516 28.136 36.5876 27.736 36.5876 27.288C36.5876 26.8293 36.6516 26.4213 36.7796 26.064C36.913 25.7067 37.0943 25.4053 37.3236 25.16C37.553 24.9093 37.8223 24.72 38.1316 24.592C38.4463 24.464 38.7876 24.4 39.1556 24.4C39.5236 24.4 39.8623 24.464 40.1716 24.592C40.4863 24.72 40.7583 24.9093 40.9876 25.16C41.2223 25.4053 41.4036 25.7067 41.5316 26.064C41.665 26.4213 41.7316 26.8293 41.7316 27.288ZM40.5156 27.288C40.5156 26.9467 40.4783 26.6587 40.4036 26.424C40.3343 26.1893 40.2383 26 40.1156 25.856C39.993 25.7067 39.849 25.6 39.6836 25.536C39.5183 25.4667 39.3423 25.432 39.1556 25.432C38.9636 25.432 38.785 25.4667 38.6196 25.536C38.4596 25.6 38.3183 25.7067 38.1956 25.856C38.0783 26 37.985 26.1893 37.9156 26.424C37.8463 26.6587 37.8116 26.9467 37.8116 27.288C37.8116 27.624 37.8463 27.9067 37.9156 28.136C37.985 28.3653 38.0783 28.552 38.1956 28.696C38.3183 28.84 38.4596 28.944 38.6196 29.008C38.785 29.072 38.9636 29.104 39.1556 29.104C39.3423 29.104 39.5183 29.072 39.6836 29.008C39.849 28.944 39.993 28.84 40.1156 28.696C40.2383 28.552 40.3343 28.3653 40.4036 28.136C40.4783 27.9067 40.5156 27.624 40.5156 27.288Z" fill="white"/>
</svg>
